/* XPM */
static char * product_logo_32_xpm[] = {
"32 32 315 2",
"  	c None",
". 	c #DF5F55",
"+ 	c #E15E53",
"@ 	c #E15E54",
"# 	c #E15C52",
"$ 	c #E15D50",
"% 	c #E05B51",
"& 	c #DE5A51",
"* 	c #E3584D",
"= 	c #DC5A4F",
"- 	c #DD554C",
"; 	c #DE534B",
"> 	c #DE5347",
", 	c #DE5246",
"' 	c #DE5145",
") 	c #DD5044",
"! 	c #DD4F43",
"~ 	c #DD4E42",
"{ 	c #D75144",
"] 	c #DB5144",
"^ 	c #DA4E42",
"/ 	c #D8594C",
"( 	c #DF594D",
"_ 	c #D9564A",
": 	c #DD4E41",
"< 	c #DD4D40",
"[ 	c #D74E42",
"} 	c #DE5144",
"| 	c #D75646",
"1 	c #D95847",
"2 	c #DE5549",
"3 	c #DE5448",
"4 	c #DD4C40",
"5 	c #DC4B3F",
"6 	c #D84D3F",
"7 	c #DE4E40",
"8 	c #D45344",
"9 	c #D25443",
"0 	c #DB5347",
"a 	c #DE564A",
"b 	c #DC4B3E",
"c 	c #D9483F",
"d 	c #DE4C41",
"e 	c #CA4B3E",
"f 	c #CD4D42",
"g 	c #D55144",
"h 	c #D95246",
"i 	c #DC5447",
"j 	c #DC493E",
"k 	c #DD4C3E",
"l 	c #72724C",
"m 	c #C5493A",
"n 	c #CE4D40",
"o 	c #D34F42",
"p 	c #DA5346",
"q 	c #DE5447",
"r 	c #DC4A3D",
"s 	c #DA4B3D",
"t 	c #469360",
"u 	c #AF4D3E",
"v 	c #C74B3C",
"w 	c #D14D40",
"x 	c #D44E42",
"y 	c #D85044",
"z 	c #DA5246",
"A 	c #DC493C",
"B 	c #DB4D3F",
"C 	c #1CA262",
"D 	c #25A167",
"E 	c #607952",
"F 	c #BE473B",
"G 	c #CB4B3D",
"H 	c #D04D40",
"I 	c #D54F43",
"J 	c #D85144",
"K 	c #DD5246",
"L 	c #DD6D64",
"M 	c #E29E97",
"N 	c #E4B7B4",
"O 	c #E1C4B2",
"P 	c #DDB392",
"Q 	c #D68B5A",
"R 	c #D37739",
"S 	c #D27438",
"T 	c #D27A39",
"U 	c #D47837",
"V 	c #DA7C37",
"W 	c #D97B35",
"X 	c #DB7F36",
"Y 	c #DC8234",
"Z 	c #E38133",
"` 	c #E48336",
" .	c #EA873E",
"..	c #23A467",
"+.	c #23A566",
"@.	c #29A063",
"#.	c #905541",
"$.	c #C4483C",
"%.	c #CD4B3D",
"&.	c #D34E40",
"*.	c #D64F42",
"=.	c #DA5144",
"-.	c #DE5F54",
";.	c #E7BAB6",
">.	c #F2F2F2",
",.	c #DDE6F3",
"'.	c #BED2F3",
").	c #EBD6B3",
"!.	c #E2AB45",
"~.	c #E6A739",
"{.	c #E8AA38",
"].	c #EDAE39",
"^.	c #F2B639",
"/.	c #F7B739",
"(.	c #FABA3A",
"_.	c #FABB3A",
":.	c #FABB39",
"<.	c #F8BD3C",
"[.	c #1FA263",
"}.	c #22A565",
"|.	c #4F8558",
"1.	c #B14539",
"2.	c #C8493B",
"3.	c #D04B3D",
"4.	c #D44E40",
"5.	c #D75C4E",
"6.	c #ECD7D4",
"7.	c #DEE6F3",
"8.	c #7CA9F4",
"9.	c #4F8DF5",
"0.	c #4E8DF5",
"a.	c #4D8CF5",
"b.	c #4C8CF5",
"c.	c #DFE6F3",
"d.	c #EFE5D1",
"e.	c #F4BC48",
"f.	c #FABF3E",
"g.	c #FCC03E",
"h.	c #FCC13E",
"i.	c #FDC33E",
"j.	c #FDC23E",
"k.	c #FDC43E",
"l.	c #F8C63A",
"m.	c #2BA86C",
"n.	c #21A464",
"o.	c #7C6347",
"p.	c #B84438",
"q.	c #CA4A3B",
"r.	c #D24B3E",
"s.	c #E5BAB7",
"t.	c #5E96F5",
"u.	c #4C8BF5",
"v.	c #5C95F5",
"w.	c #F3DEB2",
"x.	c #FDC341",
"y.	c #FDC440",
"z.	c #FDC540",
"A.	c #FDC640",
"B.	c #FDC740",
"C.	c #FEC641",
"D.	c #FEC840",
"E.	c #FEC940",
"F.	c #FEC943",
"G.	c #2AA569",
"H.	c #20A464",
"I.	c #3D915C",
"J.	c #AE4538",
"K.	c #BF4538",
"L.	c #D2695D",
"M.	c #4B8BF5",
"N.	c #7DAAF4",
"O.	c #FACE5F",
"P.	c #FEC843",
"Q.	c #FECA43",
"R.	c #FECA42",
"S.	c #FFCB42",
"T.	c #FFCD43",
"U.	c #FECE44",
"V.	c #25A767",
"W.	c #1FA463",
"X.	c #66734E",
"Y.	c #BA4436",
"Z.	c #D99B95",
"`.	c #4A8AF4",
" +	c #DFE6F2",
".+	c #F5DB95",
"++	c #FFCD45",
"@+	c #FFCE45",
"#+	c #FFCE44",
"$+	c #FFCE43",
"%+	c #FECD46",
"&+	c #24A465",
"*+	c #2D9A5F",
"=+	c #A24D3B",
"-+	c #E0B5B1",
";+	c #498AF4",
">+	c #BFD3F2",
",+	c #F4E3B2",
"'+	c #FFCF46",
")+	c #FFCE42",
"!+	c #FECC42",
"~+	c #1EA362",
"{+	c #538051",
"]+	c #DEB4AF",
"^+	c #C0D4F2",
"/+	c #F4E2B1",
"(+	c #24A567",
"_+	c #1DA362",
":+	c #21A163",
"<+	c #BEA799",
"[+	c #DDE5F3",
"}+	c #4989F4",
"|+	c #E0E7F1",
"1+	c #F6DE97",
"2+	c #FFCD41",
"3+	c #FECD41",
"4+	c #21A262",
"5+	c #1CA261",
"6+	c #609D73",
"7+	c #7EAAF3",
"8+	c #F1F1F1",
"9+	c #FBD364",
"0+	c #FBCA3E",
"a+	c #1CA460",
"b+	c #1BA261",
"c+	c #B8D8C7",
"d+	c #5B95F3",
"e+	c #D7D7B8",
"f+	c #FECD3F",
"g+	c #179F5E",
"h+	c #1AA260",
"i+	c #2BA86B",
"j+	c #CDE3D9",
"k+	c #7DAAF3",
"l+	c #CADCD1",
"m+	c #EBC44F",
"n+	c #F8CC3C",
"o+	c #189A5E",
"p+	c #19A15F",
"q+	c #2AA86A",
"r+	c #A8D7C0",
"s+	c #A4CAB7",
"t+	c #BDB957",
"u+	c #F9CB41",
"v+	c #18A15D",
"w+	c #199B5F",
"x+	c #18A15F",
"y+	c #3FAF79",
"z+	c #82C8A5",
"A+	c #A3D5BB",
"B+	c #A2D3BB",
"C+	c #80C2A2",
"D+	c #3C9D6E",
"E+	c #418E4E",
"F+	c #FDCD48",
"G+	c #F9CC3C",
"H+	c #FFCA43",
"I+	c #1A9C5D",
"J+	c #17A05E",
"K+	c #17A05D",
"L+	c #169F5D",
"M+	c #179256",
"N+	c #16874E",
"O+	c #DAC24B",
"P+	c #FBCA3D",
"Q+	c #159F5C",
"R+	c #16A05D",
"S+	c #159B5A",
"T+	c #168D51",
"U+	c #699A4C",
"V+	c #FACB3E",
"W+	c #179D5C",
"X+	c #139F5B",
"Y+	c #159E5B",
"Z+	c #159555",
"`+	c #14854D",
" @	c #F0CA4B",
".@	c #F9C840",
"+@	c #F9CA3E",
"@@	c #15A05B",
"#@	c #129A57",
"$@	c #139957",
"%@	c #138F51",
"&@	c #98AC4E",
"*@	c #F8C83C",
"=@	c #FBC83E",
"-@	c #13995B",
";@	c #129A5B",
">@	c #149F5B",
",@	c #139C59",
"'@	c #139555",
")@	c #238C4D",
"!@	c #FBCE49",
"~@	c #F9CA3F",
"{@	c #149D57",
"]@	c #159E55",
"^@	c #129956",
"/@	c #118F50",
"(@	c #C1BA4A",
"_@	c #F8CB3B",
":@	c #F9CC3D",
"<@	c #149A57",
"[@	c #149C53",
"}@	c #149C5A",
"|@	c #129B59",
"1@	c #119252",
"2@	c #40954D",
"3@	c #F6CD41",
"4@	c #F8CA3C",
"5@	c #F9CD41",
"6@	c #129051",
"7@	c #128D4F",
"8@	c #96AE4B",
"9@	c #F7C941",
"0@	c #F8C73E",
"                                                                ",
"                        . + @ # $ % & *                         ",
"                  = - ; > , ' ) ) ! ~ ~ { ] ^                   ",
"              / ( _ > > > , ' ) ) ! ! ~ : < [ }                 ",
"            | 1 2 2 3 > > , ' ) ) ) ! ~ : < 4 5 6 7             ",
"          8 9 0 a 2 3 > > , ' ) ) ) ! ~ : < 4 5 b c d           ",
"        e f g h i 3 3 > > , ' ) ) ) ! ~ : < 4 5 b b j k         ",
"      l m n o g p q > > > , ' ) ) ! ! ~ : < 4 5 b r r s         ",
"      t u v w x y z > > , , ' ) ) ! ~ ~ : < 4 5 b r A A B       ",
"    C D E F G H I J K > K L M N O P Q R S T U V W X Y Z `  .    ",
"    ..+.@.#.$.%.&.*.=.-.;.>.,.'.'.,.>.).!.~.{.].^./.(._.:.<.    ",
"    [.}.}.|.1.2.3.4.5.6.7.8.9.0.a.b.8.c.d.e.f.g.h.h.i.j.k.l.    ",
"  m.n.n.}.}.o.p.q.r.s.7.t.9.0.a.a.b.u.v.c.w.x.y.z.A.B.C.D.E.F.  ",
"  G.H.n.n.n.I.J.K.L.>.8.9.0.a.a.b.u.u.M.N.>.O.P.Q.R.Q.S.T.T.U.  ",
"  V.W.H.H.H.H.X.Y.Z.,.0.0.a.a.b.u.u.M.`.`. +.+++@+++#+#+$+$+%+  ",
"  &+W.W.W.W.W.*+=+-+'.0.a.a.b.b.u.M.M.`.;+>+,+'+@+#+#+#+$+)+!+  ",
"  &+~+~+~+~+~+~+{+]+'.a.b.b.u.u.M.M.`.;+;+^+/+@+@+#+#+$+$+)+!+  ",
"  (+_+_+_+_+_+_+:+<+[+b.b.u.u.M.M.`.;+;+}+|+1+@+#+#+#+$+)+2+3+  ",
"  4+5+5+5+5+5+5+5+6+>.8.u.u.M.M.`.;+;+}+7+8+9+#+#+#+$+$+)+2+0+  ",
"  a+b+b+b+b+b+b+b+b+c+c.v.M.`.`.;+;+}+d+|+e+@+#+#+#+$+)+2+2+f+  ",
"    g+h+b+b+b+b+h+h+i+j+c.N.`.;+;+}+k+|+l+m+#+#+#+$+)+)+2+n+    ",
"    o+h+h+h+h+h+h+p+p+q+r+>. +>+^+|+8+s+t+#+#+#+$+)+)+2+2+u+    ",
"    v+w+p+p+p+p+p+x+x+x+x+y+z+A+B+C+D+E+F+#+#+$+$+)+2+2+G+H+    ",
"      I+x+x+x+x+x+x+J+J+J+J+K+K+L+M+N+O+#+#+$+$+)+2+2+2+P+      ",
"        Q+J+J+J+J+J+J+K+K+K+R+R+S+T+U+'+#+$+$+)+2+2+2+V+        ",
"        W+X+K+K+K+K+K+R+R+R+R+Y+Z+`+ @$+$+)+)+2+2+2+.@+@        ",
"          @@#@R+R+R+R+R+Q+Q+Q+$@%@&@#+$+)+)+2+2+2+*@=@          ",
"            -@;@Q+Q+Q+Q+Q+>@,@'@)@!@)+)+2+2+2+2+~@+@            ",
"                {@]@>@>@>@X+^@/@(@)+)+2+2+2+_@:@                ",
"                  <@[@}@X+|@1@2@3@2+2+2+4@5@H+                  ",
"                        <@6@7@8@9@.@0+0@                        ",
"                                                                "};
